<?xml version="1.0" encoding="utf-8"?>
<!-- Generator: Adobe Illustrator 16.0.4, SVG Export Plug-In . SVG Version: 6.00 Build 0)  -->
<!DOCTYPE svg PUBLIC "-//W3C//DTD SVG 1.1//EN" "http://www.w3.org/Graphics/SVG/1.1/DTD/svg11.dtd">
<svg version="1.1" id="Layer_1" xmlns="http://www.w3.org/2000/svg" xmlns:xlink="http://www.w3.org/1999/xlink" x="0px" y="0px"
	 width="146.1px" height="46px" viewBox="0 0 146.1 46" style="enable-background:new 0 0 146.1 46;" xml:space="preserve">
<style type="text/css">
<![CDATA[
	.st0{fill:#EC2127;}
]]>
</style>
<g>
	<path class="st0" d="M146.1,19.4c0-0.7-0.5-1.9-2.1-1.9c-4.8,0-9.1,1.4-13.4,4.7c-3,2.1-6.7,5.8-8.8,7.2c-0.6,0.4-0.9-1.1-0.2-2.1
		l5.6-8.4l3.6-0.2l1.2-1.7l-3.6,0.2l2.9-4.3l-7.1,1.3l-2.5,3.4l-2.1,0.2l-1.2,1.7l1.8-0.2c-0.2,1.2-4.8,6-6,6.8
		c-1.6,1.1-3.1,2.2-5,3.2c-0.3,0.2-0.7-0.2-0.6-0.5c0.7-1.8,2.3-3.7,3.7-5.6c1-1.4,2.9-3.7,3.4-5.4c0.2-0.8-0.5-0.8-1.2-0.5
		c-3.8,1.6-8.4,5.9-13.7,9.8c-0.5,0.3-0.9-0.4-0.3-1.3l5.6-8.3l-7,1.3l-3.1,4.4c-3.2,4.5-10.5,10.1-16.1,11.9
		c-0.3,0.1-1.6,0.6-1.9,0c-0.3-0.6-0.2-1.6,0.1-2.4c4.4-0.7,16.8-8.7,16.8-13.5c0-1.7-1.1-1.9-2.7-1.9c-3.2,0-8,1.7-10.4,3.2
		c-4.6,2.8-9.1,8.5-10.9,8.9c-0.1,0-0.3-0.4-0.3-0.6c0-0.5,0.1-0.9,0.7-1.8l6.2-9.4l-7,1.3l-2.1,3.1c-1.9,2.7-8,7.3-8.7,7.3
		c-0.2,0-0.6-0.1-0.6-0.4c0-1,0.8-2.2,1.3-3l10.3-14.9l-7.1,1.2l-7.2,10.6c-1.8,2.6-5.5,5.7-7.6,6.8c-0.1,0-0.7-0.1-0.7-0.4
		c0-2,3.9-7.1,6.3-10.5c-3.8,0.5-7.3-0.2-8.6-0.2c-6.4,0-11.8,4.5-15.9,9.4c-1.7,2.1-8.7,8.5-12.6,10.8c-1.1,0.7-4.2,2.4-6.3,2.6
		c-2.1,0.2-3.3-2.6-3.3-5.8c0-4.9,2.8-10,5.2-12.8c8.5,1.6,17.9-4.7,24.6-9.2c1.1,1.4,3.8,1.8,8.6-0.4c2.1,0.5,4.1,0.9,6.3,0.5
		c1.5,0.3,2.9,0.8,4.6,0.8c0.3-0.5,1.4-1.8,1.7-2.9l-0.3-0.7l-0.1-1.2C58,9,57.1,8.8,56,8.6c-2.4-1.8-5.9-3.3-8.3-4.6l-0.9-1.1
		c-3.5-0.7-7-1.5-10.5-2.9L36,0.4l1.1,2.7C26.2,6.6,19.8,10.6,11.3,18c-3.8-0.2-7.4-1.1-11.2-3.2c1.8,3.6,6.6,5.6,8.3,6.3
		C6.2,23.6,0,30.5,0,37.5C0,41.6,2.9,46,6.4,46c6.7,0,15.5-8.2,20.4-12.3c-0.8,1.9-1.5,3.4-1.5,5.5c0,0.9,0.6,0.6,0.8,0.7
		c1.1,0.6,10.6-8.8,15.5-10.9c0.2-0.1,0.6-0.2,0.8-0.1c-1.7,2.2-6.1,7.3-6.1,10.2c0,1,0.8,0.9,0.8,0.9c2.4-0.6,11-7.4,14.6-9.8
		c-2.2,3.7-4.1,6.5-4,8.8c0,0.4,0.1,1,0.8,1c1.2,0,13.6-9.5,15.3-10.7c-1.2,1.7-4.5,7.1-4.5,9.1c0,0.6,0.3,1.8,1,1.6
		c1.4-0.4,6.3-4.1,12.3-8.7c-0.9,1.9-1.6,3.4-1.6,5.4c0,2,1.3,3.4,3.6,3.3c4.9-0.1,12.2-6,16.9-9.4c-1.8,3-3.5,4.9-4.3,7.7
		c-0.3,0.9-0.2,2,0.5,1.7c1.2-0.4,13.7-11.1,15.6-11.9c0.1,0,1.3-0.6,0.4,0.8c-1.8,2.7-4.9,5.9-6,8.9c-0.2,0.6-0.5,2.2,0.8,2.2
		c1.1,0,13.1-10.2,16.3-12.3c-1.9,3-5.3,8-5.5,10.5c0,0.5,0,1.8,0.7,1.7c1.5-0.2,11.7-8.4,13.6-9.8c-1,1.6-1.9,4.1-1.9,6.5
		c0,1.9,1.4,3.4,3.1,3.2c5.2-0.4,11.7-5.2,16.3-8.7l0.3-2.1c-4,3-6.9,4.9-11.4,6.4c-0.4,0.1-1.2-0.1-1.2-0.8c0-0.7-0.1-1.2,0.2-1.7
		C132.4,32.7,146.1,24.6,146.1,19.4z M138.9,20.4c2.7,0-4.5,9.9-9.1,10.4C130.9,27.3,136.7,20.4,138.9,20.4z M88.1,20.3
		c2.9,0.1-4.6,10-9,10.5C80.2,27.4,86,20.2,88.1,20.3z M40.7,5.2l-1.3-1.4V3.3c2.2,0.3,3.1,1.3,3.7,1.7c1.3,0.1,2.6,0.1,3.6,0.5
		C46.9,6.6,48,7.3,49,7.8l3.4,1.4c-0.9,2.1-4.7,1.2-5.5,0.9c-2.2,0.4-5.2,0.6-6-0.6c-5,3.3-16.6,8.5-23.6,9.1
		C23.1,12.8,32.9,7.1,40.7,5.2z M37.3,29.3c0-3.3,6.6-8.7,10.2-8.7C47.5,21.7,39.9,29,37.3,29.3z M79.8,12.4c1.3-1,2.1-2.5,1-3.6
		c-0.3-0.3-1.4-0.5-2.8,0c-1.3,0.5-4.1,3.1-4.2,5.5C73.8,15,77.8,13.8,79.8,12.4z"/>
</g>
</svg>
